<svg id="Layer_1" data-name="Layer 1" xmlns="http://www.w3.org/2000/svg" viewBox="0 0 500 500"><defs><style>.cls-1{fill:#fff;}</style></defs><path d="M8.78,237.32h0l.13-.05v-.1l-.32.3h.1A.71.71,0,0,1,8.78,237.32Z" transform="translate(0)"/><path d="M194,474.6a13,13,0,0,0,1.09,1.36c.07.07.5-.23.75-.35L195,474Z" transform="translate(0)"/><path d="M184.47,476.82c0-.07,0-.14,0-.21l-4.33-.67-.06.22.37.66Z" transform="translate(0)"/><path d="M189.62,486l.1.09.08,0a.5.5,0,0,0,0-.13C189.76,486,189.7,486,189.62,486Z" transform="translate(0)"/><path d="M393.41,89.66c.54.48,1.09,1,1.62,1.44a5.28,5.28,0,0,0-1.4-2.38Z" transform="translate(0)"/><path d="M436.1,142.42c.61,1.07,1.22,2.15,1.81,3.23l2-1.89A14.59,14.59,0,0,0,436.1,142.42Z" transform="translate(0)"/><path d="M138.05,459.53c-5.68-1.26-6.29-1.71-6.7-7.76l-2,2.12,3.23,10.49,11-3.2A49.68,49.68,0,0,0,138.05,459.53Z" transform="translate(0)"/><path d="M77.33,85.09c-.09,0-.49.5-.44.7a4.07,4.07,0,0,0,.62,1.08l1-1.14A5.48,5.48,0,0,0,77.33,85.09Z" transform="translate(0)"/><path d="M189.8,486.09l-.66,2.29a20.69,20.69,0,0,0-2.53-.39l1.87,3.4,6.65-4a3.69,3.69,0,0,0-2.4-.68A12.88,12.88,0,0,1,189.8,486.09Z" transform="translate(0)"/><path d="M143,453.51a4.86,4.86,0,0,0,.69-1l-1-.54a5.23,5.23,0,0,0-.45,1.16C142.21,453.22,142.88,453.58,143,453.51Z" transform="translate(0)"/><path d="M495.74,251.67c-1.75-6.83-6.93-11.33-11.17-16.46-.52-.64-1.33-1-1.9-1.66-2.28-2.46-1.81-5,1.51-5.56l2.19-.41c.95-.17,1.91-.33,2.87-.47l-11.33-10.87,1.22-2a20,20,0,0,1-8.44-2.54,35.85,35.85,0,0,0,.06,5.84c.32,1.74,1.87,3.41-.28,5-.89,0-1.61,0-2.22-.06,2.1,1.78,4.21,3.84,7.47,1.53,1.67,2.89,4.28.35,6.37,1.08,1.05.36,2.3.15,3.64.76-3.36,1.32-6.68,2.75-10.09,3.94a19.92,19.92,0,0,0-8.46,5.3,8,8,0,0,0-2.33,4.73,10.48,10.48,0,0,1-1.51,3.77c0,.7,0,1.4,0,2.1A208.61,208.61,0,0,1,450.16,319l3.73,1.12c-2.13.85-3.53,1.09-4.32.43A209,209,0,0,1,417.82,376l.81.63c-.19.3-.38.6-.58.89l-1-.54a209.85,209.85,0,0,1-21,22.42,6.25,6.25,0,0,1,3.84,2.71,22.84,22.84,0,0,1-7.05.19c-2.09,1.85-4.21,3.66-6.38,5.43a2.38,2.38,0,0,1-.91,3c-1.16,0-2,0-2.74-.1a208.13,208.13,0,0,1-107.48,43.11,19.12,19.12,0,0,1-4.38,3c.77-1,1.61-1.88,2.4-2.78-6.27.57-12.62.88-19.05.88-4.58,0-9.13-.17-13.65-.46a9.38,9.38,0,0,0,.61,3.14c1.08,3,.57,3.83-2.33,5-2.5,1-5.08,1.62-7.75.57l0,0c-.05,0-.11,0-.16.06l-.12.05.19-.19,0,0,.12,0a13.05,13.05,0,0,0,7.06-8.49c0-.13.07-.26.11-.39l-2.79-.25c-1.19,1.48-2.27,3-2.29,5-4.23-1.66-8-3.42-12-4.63a13.5,13.5,0,0,1-5-3,206.39,206.39,0,0,1-27.38-7c-.62,1.25-1.27,2.57-2.11,4.23-.19-2.83-.2-3.31,1.44-4.44A209.27,209.27,0,0,1,47.15,273.9a3.45,3.45,0,0,1-1.77-1.44l0,0-.1-.15.24.06a4.92,4.92,0,0,1,1.35-.76,209.43,209.43,0,0,1-1.6-25.93q0-3.34.11-6.64a3.52,3.52,0,0,1-3.66-.19c1.09-2.29,2.08-4.57,3.27-6.74a1.34,1.34,0,0,1,.76-.48c0-.57.06-1.15.1-1.72l-3.07-4-1.56-2c.26-1,.63-2.47,1-3.88a7.62,7.62,0,0,1,4.61.25,207.56,207.56,0,0,1,10.5-44.57,11.46,11.46,0,0,0-1.73-1.23l1.86.84A208.94,208.94,0,0,1,99.66,105,18.32,18.32,0,0,1,105,99.4L107.32,97l-1-2.14c1.28.09,2-.09,2.47.22l.3.23a209.07,209.07,0,0,1,69.52-44.56,32.24,32.24,0,0,1-2.34-4.1c-.86-1.87,0-4.6.28-6.91.44-3.05,3.69-2.35,6-4l-4.23-.54c0-.18,0-.36,0-.54l14.28.78.06-.83-4.3-1.09c-.5-2.11-.95-4.05-1.54-6.55l7.26-.65A23.66,23.66,0,0,1,192.86,24c-.86-1.87,0-4.6.28-6.9.43-3.06,3.69-2.35,6-4l-4.23-.53c0-.18,0-.37,0-.55l14.27.78c0-.07,0-.13,0-.2l-1.78-1.09L205,10.91l-.24-1L188.48,0,168,37.29,127.12,25.43,124.05,38a4.35,4.35,0,0,1,1,0c2.94.27,7,.5,7.13,5.19.06,2-5.15.43-2.44,3.94a58.15,58.15,0,0,1-8,.66l-.13,0-4.65,19-42.54-.89.26,12c.6.65,1.24,1.3,1.82,2l0,0c.8,1.15,1.73,1.76,2.87,1.51a3.92,3.92,0,0,0,1.12-.51l.05.09h2.62c.9,5.29-5.3,7.38-5.35,12.21C76.92,92.79,76,92.4,75,92l.34,16.39L34,118.52,45.9,159.38,8.61,179.87,30.7,216.24,11.49,234.67a7.13,7.13,0,0,1,0,1.53l.12,0,0,.21c3.58,1.5,1.15,4.21.71,6.51-.24-2.17-.48-4.33-.71-6.51a1.09,1.09,0,0,1-.15-.08l.06-.06-.06.06v-.08c-.87.35-1.73.7-2.58,1.06v.18l-.22,0q-1.45,1.89-2.9,3.81l-.52-.63L0,245.7l9.16,8.79c.54-.91,1-1.72,1.5-2.51l1,.28v4.58l-.06,0,.5.48a21.69,21.69,0,0,1,1.57-5,24.47,24.47,0,0,1-.67-2.65c0-.14.76-.4,1.17-.6.18.44.36.87.55,1.3a20.81,20.81,0,0,1,6.78-7.07l1.72,2.15a7.37,7.37,0,0,1,5.71-1.12h0a21.81,21.81,0,0,1,6.2-21.37l-2.08.22,4.42-2.59.12.42.49-.34L42.38,226l-9.75,11.39c1.87,7.13,1.87,7.13-2.69,10.46,0-1.28,0-2.37,0-3.46,0-.14-.2-.4-.24-.38a4.07,4.07,0,0,0-.67.31.19.19,0,0,0,0,.08l-.05,0s0,0,0,0h-.08l-3.82,3.45.67.83L16,260c.14.51.26,1,.37,1.42l2,1.9c2.68-4.15,6.51-5.26,11-4.5-1.07,4-2,8.1-3,12.17l4.34,4.17L8.61,311.53,45.89,332,34,372.88,75.37,383l-.89,42.53,13.27-.27c.45-1.87.9-3.74,1.39-5.59a18.84,18.84,0,0,1,2.09.47c3.66,1,7.68,1.25,10.88,4.43-.08.13-.14.26-.21.39l15.12-.31,4.56,18.65a23.54,23.54,0,0,1,11.58-2.11c4.34.27,5.56,2.25,4.69,7.47,2.44-.23,4.83-.52,7.24-.65,2.82-.15,5.21.55,7,3.08a7.71,7.71,0,0,0,4.86,2.62l-3.2-4.11,3.82-4.91c2.25-.13,4.45-.61,6.23,1.82s3.61,5.26,2.37,8.13l1.78-.51,9.14,16.63c3-.38,6-.66,8.9.86,0,0,0-.05,0-.08,1.93-.19,3.86-.1,4.62-2.73.24-.83,2.09-1.19,3.41-1.88l-2.45-3.68,3.35.43,1.35-3c2.22.4,3.63,1.9,2.78,3.4-1.06,1.85.92,2.72.5,4.12,0,.24,0,.49,0,.73,2,1.69,3.74,1.46,5.09-.78,3.33.61,5.76,2.48,5.74,6.27a30.59,30.59,0,0,0,.23,3.58l14.23-8.64L254.3,500l16.3-17c-1.18-2.17-2.41-4.25-5.56-3.9-1.59.18-1.68-1-1.68-2.19,0-.05.09-.07.13-.12l.1-.17c4.77-2.79,9.45-2.71,13.18-.05l7-7.28,36.37,22.08,20.49-37.28,39.12,11.34c-.53-.6-1.06-1.21-1.57-1.83s-1.33-1.05-1.9-1.67c-2.29-2.45-1.82-4.95,1.5-5.56L380,456c1.36-.25,2.73-.48,4.11-.64l1.3-5.33c-1.56-1.51-3.84-1.23-11.26,1.57.35-1.55.47-2.13,1.19-2.67-1.4-.17-2.71-.39-3.75-.52l5.81-.71a6,6,0,0,0-.42-1.16,13.17,13.17,0,0,0-1.12-1.37l2.53-3.37a5.19,5.19,0,0,1,1.67.48c.89.72,1.56,2.07,2.52,2.29a6.42,6.42,0,0,1,3.68,2l5.35-21.92,24.75.51a8.44,8.44,0,0,0,1-2.79,3.44,3.44,0,0,1,.91-1.75,25.13,25.13,0,0,1,15.65-7.86L433.23,383l41.33-10.1-6.87-23.71a13.65,13.65,0,0,1-2.55.82c-1.29.28-2.55.74-4.41,1.28,1-1.86,2-3.33,2.73-4.89s1.34-3.13,2.07-4.66l-2.82-9.7L500,311.53l-22.09-36.37L499,254.9c-.85-.64-1.68-1.34-2.49-2.06A2.55,2.55,0,0,1,495.74,251.67ZM186.34,25.15c.19-.09.7.46,1.44,1a6.44,6.44,0,0,1-1.71,1c-.28,0-.68-.51-1-.8A6.17,6.17,0,0,1,186.34,25.15ZM169.72,47.81c.19-.1.7.46,1.44,1a5.94,5.94,0,0,1-1.71,1c-.28,0-.68-.51-1-.79A5.92,5.92,0,0,1,169.72,47.81ZM46.39,215.22a1.8,1.8,0,0,1,0-.19v.32l-.07,0,0-.07A0,0,0,0,1,46.39,215.22ZM18.88,243c-1.42-2.43-2.55-4.21-3.49-6.1a2,2,0,0,1,.54-1.73,2.12,2.12,0,0,1,1.8-.4C20,235.52,20.82,239.61,18.88,243Zm8.08-8.2-1.34-.18.67-2.47.88.21Zm-2.83,21.38c1.06-1.2.48-3.77,3.85-3.87C26.73,254.18,26.84,256.36,24.13,256.17ZM44.6,229.65c-1.25,1.87-1.14,4.06-3.85,3.87C41.81,232.32,41.23,229.74,44.6,229.65Zm-4.06,16.69L45.18,249C42.36,250.29,41.48,249.29,40.54,246.34ZM59.68,361.82c0-.05,0-.12-.08-.17s-.13,0-.2,0c-.53-1.14-1-2.32-1.6-3.43-1.26-2.3-2.44-4.69-5.79-4.31-1.59.18-1.68-1-1.68-2.19,0,0,.09-.07.13-.12l.1-.17c6.9-4,13.63-2.07,17.54,5.08.45.82,1.63,1.25,2.7,2C67.32,362.15,63.78,363,59.68,361.82Zm128.66,92.25c3.17-2.6,3.17-2.6,5.33.63Zm128.38,13c-.61-.9-1.38-2-2.31-3.4.48-.23.94-.49,1.39-.76,3.1-1.9,5.56-4.57,9.56-3.65Zm51.41-6.71-.74-.51,1.92-2.86,1,.66ZM418.28,378c1-3.19,2.21-2.77,4.64-.71Zm30.41-26.46c-.63-1.82-1-3-1.67-4.78C449.44,348.07,449.44,348.07,448.69,351.51Zm13.72-34.33,4-.64C463.61,318.91,463.53,318.94,462.41,317.18Zm3-21.3-.17-.05.11-.15c-.38-.37-1.13-.86-1.05-1.08.64-1.94,1.44-3.82,2.26-5.89a1.9,1.9,0,0,1,1.38,3,32,32,0,0,1-2.59,4l0,0h0a1,1,0,0,0,0,.18l5.08,1.53C467.21,298.73,465.62,298.61,465.43,295.88Zm6.24,22.37,4-4.56C476.83,317.62,476.83,317.62,471.67,318.25Zm5.53-9.67,0-.07h0l0,0,.12.15Zm.77-8a6.77,6.77,0,0,1,.23,1.32c0,.12-.44.24-.81.43a5.5,5.5,0,0,1-.15-1.34C477.26,300.84,477.71,300.73,478,300.6Z" transform="translate(0)"/><path d="M195.7,469.59l-1.3-.76c-.38.91-.77,1.81-1.11,2.74a2.72,2.72,0,0,0,.78.39C194.64,471.2,195.16,470.39,195.7,469.59Z" transform="translate(0)"/><path d="M458.87,116.21a.45.45,0,0,1,.11,0l0,0,.3.1,3.23.31q-.5-.64-1-1.29l-6.59-1.6,3.53,1.69C458.72,115.52,458.77,115.92,458.87,116.21Z" transform="translate(0)"/><path d="M189.62,486c-1-.88-2-1.78-3.61-3.28C186.7,485.58,187.79,486.36,189.62,486Z" transform="translate(0)"/><path d="M270.86,10.64c2.84,5.76,1.47,10.6-2.39,15.2-1.24,1.49-2.88,2.69-2.5,5.21.12.79-1.73,1.87-2.66,2.8l-2.94-7.43-4.46,1c-2,1.95-2.89,3.38-1.67,5.84a14.42,14.42,0,0,1,1.17,3.35,209.73,209.73,0,0,1,56.78,8.11,6.43,6.43,0,0,1,2-6,13.07,13.07,0,0,1,1.37,7c1.3.4,2.59.82,3.88,1.24l-.42-.35a6.91,6.91,0,0,1,1.44,0c.09,0,.14.27.25.74,1.09.36,2.16.74,3.24,1.12l3.85-6.18,1.1.38a9.16,9.16,0,0,0-2.07,6.84c1.39.51,2.78,1,4.15,1.58V48.58c2.14,1,2.61,2.29,2.63,3.65q7.33,3,14.38,6.55a36.93,36.93,0,0,0,.57-5.11l3.27,1.38q-1,2.33-2.07,4.62a209.49,209.49,0,0,1,40.85,27.54,7.28,7.28,0,0,1,1.29-1.31l.15-.15,3-1.49A1.87,1.87,0,0,0,396.82,87c2.54.1,2.87,1.85,3.76,4.27l-3.4-1.77c-.28,1-.56,1.9-.84,2.87a210,210,0,0,1,21.75,23.46c3-2.14,1.9-5.56,2.09-8.16l4,9-5.76-.49a208.35,208.35,0,0,1,12.23,17.17,11,11,0,0,0-.41-2.12,1.15,1.15,0,0,1-.17-.06l.13-.13-.13.13a2.11,2.11,0,0,0,0-.26c-1.29-1.09-1.28-1.2-.27-3,.12,1.34.2,2.2.27,3,.06,0,.08.08.15.13s0,.13,0,.19c1.44.38,2.14,1.2,1.66,2.84-.08.3-.15.62-.22.92,1.09,1.75,2.15,3.5,3.19,5.28,3.26.87,6.31.16,9.35-3,1.57,3.77,4.36,6.71,2.54,10.8-2.87.56-5.49-1.38-8.23-1.31.82,1.52,1.61,3.05,2.4,4.59a8.15,8.15,0,0,1,1.24,1.25l-.44.37a210.2,210.2,0,0,1,8.58,19.81c2.12.29,2.49,1.95,3.33,4.21l-2.22-1.15c.52,1.48,1,3,1.52,4.47l2.44,1.39,1.63-7.89.63,0c-.27,3.62-.55,7.24-.86,11.3,2.84.49,5.29,1.29,7.72,1.25,2.8-.05,4.9.71,6.44,3a20.51,20.51,0,0,1-14.13-2.22,35.74,35.74,0,0,0,.07,5.84c.23,1.27,1.11,2.51.73,3.71.32,1.35.63,2.7.93,4.06l.37-.45,10.38,5.95c.57-2.76,1.11-5.32,1.64-7.89l.63,0c-.28,3.62-.55,7.24-.86,11.3,2.83.49,5.28,1.29,7.72,1.24a10.1,10.1,0,0,1,2.59.27l13.13-21.61a19.06,19.06,0,0,1-2.38.08c-.75,0-1.55,1-2.68,1.76.33-4.09.63-7.93,1-12.41-.34.22.05-.06.47-.29s.88-.4,1.45-.65c-.05-.9-.1-1.8-.15-2.72l-1.41-.78-1.12.88a7.76,7.76,0,0,1-.72-1.89l-25.83-14.19,7-24.14a23.17,23.17,0,0,1-1.74-3.57c-1.27-3.17-3.07-6.13-4.66-9.18-.08,0-.14,0-.22,0l-.18-.55c.1.14.21.28.31.43l-.13.12.13-.12.09.16c2.7.11,3.79,2.38,5,4.18,0,0,.05.09.08.14.13-.32.26-.63.38-1h-.1v-.14a.81.81,0,0,0,.16,0l-.06.15c1.5-.17,2.85,0,1.74,2a2.63,2.63,0,0,1-.91.87c.46.74.92,1.5,1.36,2.26l.32-1.12-.54-.58.79-.27.91-3.13c-.56-.47-1.24-.84-1.7-1.27a3.66,3.66,0,0,1-1.22-4.31h-.08a.67.67,0,0,1,.06-.12l.05,0h0a.54.54,0,0,0,0,.1c1.14,0,2.29,0,3.43,0a4.67,4.67,0,0,0,1.15-.12l.47-1.64-9.39-2.3a23.64,23.64,0,0,1-.81,2.83L463,117.24c0,.09,0,.19-.05.28l-3.64-1.2-.42,0a.19.19,0,0,1,0-.07,37.3,37.3,0,0,1-7.69-2.18c.33,1.13-1,2.74-2.51,4.13l-4.38-7-11.06-2.7.32-15.13a3.86,3.86,0,0,1-2.65-1c-.75-.57-2-.42-2.92-.83a5.77,5.77,0,0,0-.8-.28l-3.71,1.35c-.12-1.24-.2-2.14-.33-3.46l1.59.11a4,4,0,0,1,.49-1.63c.32-.63-1.28-2.22-2.1-3.52,1.32-1,2.84-2.06,4.2-3.28a5.57,5.57,0,0,0,1.58-2.37A22,22,0,0,1,434,70.6l.1-4.72-18.87.39,3.81,1.9a46.89,46.89,0,0,1-.82,5.72c-.57,2.17-2.46,2.33-4.44.83-.75-.57-2-.42-2.91-.83-1.6-.72-4.47-.52-2.76-3.91.31-.62-1.29-2.21-2.1-3.51l-14.45.3-10.1-41.34-28,8.12c.22.54.46,1.07.72,1.6,1.1,2.23.71,5.19,1,8.21l-7.59-1.43c0-.17,0-.35,0-.52h5.06c.91-2.75.16-5.14-.73-7.43l-9.37,2.72c.19,1.39.33,2.38.58,4.21-1.37-1.24-2-1.82-2.66-2.37l-.12.13,0-.16h.05l0,0,1.51-1.68-1.48.43-2.26-4.12-.38.06a4.1,4.1,0,0,0,.23.83c-2.63-1.44-3.73-2.21-3.69-3.24-.08-.18-.16-.35-.23-.54a10.58,10.58,0,0,1-.92-3.39,3.59,3.59,0,0,0-1.27-3.06A9.21,9.21,0,0,1,330,28.08c-.18-1.12-.45-2.2-.69-3.23h-2.17c0-.27,0-.53,0-.8h2c-.53-2.37-.8-4.52.56-6.59L320.13,0,283.76,22.09l-13.42-14A4.2,4.2,0,0,0,270.86,10.64ZM463.57,150.29c-.37-.66-.67-1.36-1-2l.82-.49,1,2.28A3.36,3.36,0,0,1,463.57,150.29Zm1.23-14.82c-.09,2.88-.09,2.88-3.29,3.75Zm-3.17-4.38a.43.43,0,0,0,0-.07l.1.13h0l-.12-.06L460,133.5c-.69-1.21-1.16-2-2.27-3.95Zm-3.06,9.81c.37,1.76.75,3.52,1.08,5.07C457,144.35,456.85,143.88,458.57,140.9Zm-4.38,16,.93,2.68-1.22.2-.21-2.76Zm-6.21-.2L444,155.14c.18-.41.35-.81.53-1.21l3.84,1.78C448.26,156,448.12,156.35,448,156.67Zm1.71-25.33c-1.57.66-3.16,1.27-4.7,2-1.3.62-2.52,1.39-4.26,2.35-.07-.1-.4-.48-.67-.89s-.51-.84-.86-1.43C442.37,131.34,445.49,129.64,449.69,131.34Zm-33.27-25.62,3.54,1.1-.15.7-3.93-.55ZM360.29,56.09l-1.11-4.46C361.94,52.6,361.94,52.6,360.29,56.09Zm22-4.77-2.44,1.21c-.42-1.07-.83-2.15-1.25-3.23l1.67-.76Zm-4.69-17.88,2.27,1.91c-.1.23-.19.47-.28.7a4.76,4.76,0,0,1-1.79-.34c-.45-.31-.63-1-.93-1.54Zm-16.41,9.43c1.48,1.68,1.48,1.68-.35,3.13C361,44.9,361.09,44,361.22,42.87Zm-6-2.65,4.43-2.59c.18.67.36,1.38.55,2.08ZM351.93,51.7l.82.12c-.28,1-.56,2-.82,3ZM343.15,45c.77.76,1.54,1.53,2.87,2.83-2.72,0-2.72,0-3.73-1.94ZM334,37.3l4.59,1.55s0-.06,0-.09l.14.14-.08,0-.08,0c-.27.77-.35,1.85-.88,2.16-2.6,1.53-2.64,1.44-5.36.3Zm-8.49-16.88c-1.79.08-3.63.23-2.65-3.22ZM318.2,5.78l4.39,2-.21.63.3,0a8,8,0,0,1-.92,1.83c-.29.86-.6,1.73-.95,2.58-.23.53-.87,1.27-1.3,1.26a3,3,0,0,1-2-1C315.49,10.6,317.68,8.42,318.2,5.78ZM307.28,17.39c1.13-.7,1.71-2.89,3.74-.95.07,2-4,2.38-1,5l-3.52,1.09C306.65,20.55,305,18.82,307.28,17.39Zm-1,22.46,2.65,3.23C307.14,43.15,305.3,43.31,306.28,39.85Zm-4.7-11.42,4.39,2c-.57,1.65-1.1,3.36-1.78,5-.23.54-.87,1.28-1.3,1.26a3,3,0,0,1-2-1C298.87,33.26,301.06,31.08,301.58,28.43Zm-12.72,4.68a5.62,5.62,0,0,1,.93,1c.08.12-.25.49-.4.74l-1-.79Z" transform="translate(0)"/><path d="M211.89,23c-.59,7.69-6.65,9.12-12.18,11.7-.41-.61-.83-1.21-1.25-1.81.27,1.08.52,2.15.72,3.24s-.43,2.57-1,3.73c-.82,1.79-2.42,3.45-2.83,5.22A208.82,208.82,0,0,1,246,36.82c1.3-2.36,1.2-4.47-.73-6.8,8.29-1.85,12.82-14.15,10-20.47a8,8,0,0,0-.57-1.07c-1.46,0-2.92.33-4.13-.09-4.06,2.18-5.27,1.91-8-2.1a2.79,2.79,0,0,0-1.42-1.23l-16.34,17-9.59-5.83c-.14.32-.28.64-.42.94C213.93,19.18,212.05,21,211.89,23Zm39.33-12.16c.8,2.84,1.25,4.4,1.69,6l-.61.93c-1-.6-2.73-1.17-2.74-1.79C249.53,14.58,250.38,13.2,251.22,10.83Zm-2.78,7.44c1.17,2.57.46,3.68-1.69,4.17Zm-3-7.13a8.92,8.92,0,0,1,1.13,1.76c.11.38-.15.87-.49,2.47a14.22,14.22,0,0,1-1.34-2.6C244.64,12.42,245,12,245.41,11.14Zm-12,13.41,5.92,6.73c-2.59-.66-5.45,1.16-7-1.74A3.48,3.48,0,0,1,233.36,24.55Z" transform="translate(0)"/><path d="M433.73,84.57l0-1c-.57,0-1.26,0-2.17-.07Z" transform="translate(0)"/><path d="M62.4,241.61c0,1.36,0,2.72,0,4.09,0,.68,0,1.35,0,2A19.65,19.65,0,0,0,62.4,241.61Z" transform="translate(0)"/><path d="M365.38,401.23c0,.39-.05.73-.08,1.1q3.93-2.81,7.72-5.78a20,20,0,0,0-2.62,1.31C368.56,399,366.81,400.26,365.38,401.23Z" transform="translate(0)"/><path d="M264.42,54l-1.72-.07c.28.32.57.66.85,1Z" transform="translate(0)"/><path d="M436,195.06c0,1.48.05,3,2.47,2.77.67-.06,1.47,1.33,2.3,2.27q-1.51-6.22-3.42-12.27l-1,.69C436.24,190.88,436,193,436,195.06Z" transform="translate(0)"/><path d="M440.58,219.88c-1.09-3.15-4.14-1.16-6.05-2.27-1-.56-2.23-.58-3.43-1.44,3.55-.66,7.08-1.43,10.65-1.94.64-.1,1.25-.23,1.87-.36q-1.12-6.7-2.7-13.26c-.15,1.55-.32,3.28-.55,5.56a12.77,12.77,0,0,1-2.4-1.9c-1.2-1.61-2-3.53-3.39-5-2.09-2.26-3.67-5.89-7.92-4-1.09-3.15-4.14-1.16-6.05-2.27-1-.56-2.23-.58-3.43-1.44,3.55-.66,7.08-1.43,10.66-1.94a20.14,20.14,0,0,0,9-3.41,191,191,0,0,0-19.49-41.85,3.79,3.79,0,0,0-3.23,2.34,15.86,15.86,0,0,1-3.3-4.11l-3.2,1.57a5.54,5.54,0,0,1,2.75-2.72c-.51-1.84.09-3.44,1.88-4.85q-2.5-3.63-5.18-7.13l-2.92-1.09-.75-.13-.25-.18a24.86,24.86,0,0,0-2.93-.68c-.81-.11-1.64-.14-2.5-.17-2.27,7.42,3.56,9.93,8.2,13.38l-2.62,3.66c-.37-.67-.83-1.12-.75-1.41.47-1.62.44-3.49-1.27-3.78-3.15-.54-3.84-3.27-5.51-5.1h-.1c-.07.89-.13,1.81-.25,3.55l-2.4-3.22,2.65-.33a.57.57,0,0,1,0-.13l.05.05.05,0-2.66-2.77,4.26-4-1.07,0c.21-.63.53-1.63,1.08-3.34l5.76,4.24.36.08h0l.63.24,2.4.41A191.89,191.89,0,0,0,291.63,57.38c-.08.17-.15.34-.23.52q-.18-.32-.33-.63a195.42,195.42,0,0,0-20.71-2.86c.2.46.4,1,.66,1.77L264.13,62l-7.82-7.32c-2.72,1.9-3.35,6.32-8.05,5.63a11.55,11.55,0,0,1,4.65-6.51c-1.19,0-2.38,0-3.57,0,0,.78-1.76,1.82-2.65,2.71-.36-.92-.69-1.75-1-2.57a191.4,191.4,0,0,0-131.11,60.17c-.71,3.15-1.19,6.38-2.48,9.25-1.62,3.59-4.51,6.59-6.66,10a7.9,7.9,0,0,1-9.29,3.61A191.14,191.14,0,0,0,72.31,184.5c.14.33.29.66.44,1a2.78,2.78,0,0,1-.76,0A191.21,191.21,0,0,0,62.51,238c1.38.52,2.69.57,3.78-.79V237a2.4,2.4,0,0,1,.23-.11l-.1.17a1.54,1.54,0,0,1-.13.12c0,1.15.09,2.37,1.68,2.19,3.36-.38,4.54,2,5.79,4.31.6,1.11,1.08,2.28,1.6,3.43.08,0,.12,0,.2,0s0,.12.09.18l-.22,0a.91.91,0,0,1-.07-.14c-2,.27-2.65-1.16-3.4-2.69-1.29-2.68-3.35-4.13-6.85-3.16-.86,2.11-1.8,4.43-2.73,6.74a193.4,193.4,0,0,0,1.33,20.55l.44-.12c-.1.5-.19,1-.29,1.43.65,5.14,1.5,10.23,2.55,15.24.09-3.25.53-6.5.85-10.24,2.36-1.94,4.74-3.66,8.18-2.61a5.42,5.42,0,0,1,4.13,4.55c.66,3.39,1.39,6.76,2.1,10.18H79.5c.55-6.1-3.4-9.13-8.35-11.39-4.36,6.05-4.58,11.12-.7,17.22-.9-.14-1.66-.25-2.34-.32a192.3,192.3,0,0,0,133.2,137.71,3.49,3.49,0,0,1,1.05-3.61,4,4,0,0,1,4.62-.69,53,53,0,0,0,5.15,1.5c.13,3.8-.48,4.82-3.23,4.8q3.27.79,6.59,1.49c.15-.58.28-1.17.44-1.75.68.12,1.37.28,2.08.47l.16.05c-2.31-1.88-3.38-4.5-3.33-7.89,0-.36-.87-.73-1.37-1.12,2.69-4.55,6.65-5.73,11.26-4.94-1.28,4.85-2.42,9.76-3.55,14.67a17,17,0,0,1,6.44,2.58,194.25,194.25,0,0,0,24,1.82,14.45,14.45,0,0,0,3.22-5.73c.66-2.09.65-4.68,3.52-6.15a10.31,10.31,0,0,1-.38,2.76,7.56,7.56,0,0,0-.14,6.28,9,9,0,0,1,.47,1.73l2.33.36,2.44.37.06.2a191.18,191.18,0,0,0,28.83-3.5c.27-.28.54-.54.81-.79a7.07,7.07,0,0,1,2.23-1.16c1.71-.61,1.65-3.53,4.72-2.74a40.23,40.23,0,0,1,5.34,1.59,191.3,191.3,0,0,0,52.51-23.33,5.46,5.46,0,0,0-2,.52c-1.08-3.16-4.14-1.16-6-2.27-1-.56-2.22-.59-3.43-1.44,3.55-.66,7.09-1.43,10.66-1.95a20,20,0,0,0,9.31-3.58,8,8,0,0,0,3.2-4.2c.77-2.28,3-4.08,4.61-6.16l5.26,3a193.2,193.2,0,0,0,38.13-44.4c-.55-1.75-.89-3.38.82-5.26l1.42,1.57a191.11,191.11,0,0,0,26.68-97.66c0-2,0-4-.1-5.94a25.85,25.85,0,0,0-5.84.26c-2.74.59-4.94.24-6.89-1.69a20.55,20.55,0,0,1,12.64-1c-.1-2.31-.23-4.61-.41-6.89a2.51,2.51,0,0,1-.24-2.74q-.37-4-.91-8A4.27,4.27,0,0,0,440.58,219.88ZM78.52,223.67c2.1,2.25,2.2,3.75.09,5.38C76.32,227.4,77.25,225.89,78.52,223.67ZM68.83,259.8,70,262.88l-.54.38a7.55,7.55,0,0,1-1-1.57,6.91,6.91,0,0,1-.15-1.78Zm17-4.25c-.18,3.36-2.56,5.27-5.11,7-1,.68-2.06,1.31-3.09,2l-.06,0-.14-.06a3.57,3.57,0,0,1-1.31.47c-1.67,0-3.41-.36-5,0-1.39.29-2.61,1.36-4.21,2.26,0-3.13,2.72-2.91,4-4.1s2.91-2.31,4.39-3.44c.05-.12.06-.17.11-.3l.18-.11c.52-.37,1.28-.74,1.27-1.1-.09-4.82,4-6.6,6.7-9.32C87.13,250.12,85.94,253.07,85.81,255.55Zm11.6,7.13c-1.66-.23-3.29-.63-5.64-1.09a22.78,22.78,0,0,1,4.81-12.91,41.31,41.31,0,0,1,2.9,4.66,42.17,42.17,0,0,1,1.66,5.25C101.9,261.24,100.25,263.07,97.41,262.68Zm-4.1-20.35c1.4-.15,3.19-.92,4-.33,1.9,1.46,4.6,2.53,4.67,5.74C99.78,244.83,94.33,248,93.31,242.33ZM106,244.05c-3.87-1.42-6.33-3.67-13.79-12.73l6.19-3.94c1.47,1.91,5.9,2,4.58,6.7l6.23-2.27C107.9,236.67,108.83,240.87,106,244.05Zm56.58-126c-.08-1.77-.13-3-.21-4.73C164.49,114.88,164.83,116.11,162.6,118.08Zm-7.7-7.49c2.16,2.4,2.19,4.86.55,8.16l.05.07,0,0,0,0,.11.07,4.09-.92c-.37,3-.82,3.13-4.09.92l-.25.06a1.54,1.54,0,0,1,.08-.19C153,116.24,155.33,113.63,154.9,110.59Zm-2.35-.47.67,2.11-.77.29c-.35-.62-.7-1.24-1.06-1.85Zm12.51,22.47-7.82-7.32c-2.73,1.9-3.35,6.32-8.05,5.63a12,12,0,0,1,6.64-7.72c4-2.07,6.22-.73,8.65,2.41l2.71-3c3.63,1,3.63,1,4.76,4.23Zm7-8.39-.81-.24c-.26-1.46-.51-2.92-.92-5.28l-3.28,3.86c-.25-.2-.7-.44-.67-.54.4-1.4.57-3,1.39-4.11,1-1.37,2.32-1,6.21,1.47C173.37,120.9,172.72,122.55,172.07,124.2Zm2.19-13.32a44.23,44.23,0,0,1-3.52,3.08c-1.31-2.63-.11-3.88,1.1-4.92.38-.34,1.5-.12,2.08.2A1.71,1.71,0,0,1,174.26,110.88Zm23.11,49.46,4-.64C198.57,162.07,198.49,162.1,197.37,160.34Zm6,265.54c-.23-3.4-.23-3.4,2.61-5.22C205.23,422.21,204.46,423.76,203.4,425.88Zm3.65-9.32-3.34-.92,2.35-3.94,1,.28Zm-.42-255.15,4-4.56C211.78,160.78,211.78,160.78,206.63,161.41Zm5.72-15.9a5.07,5.07,0,0,1-.15-1.35c0-.16.47-.27.73-.4a6.77,6.77,0,0,1,.23,1.32C213.16,145.2,212.72,145.32,212.35,145.51Zm37.56,278.71-3.26,1.26C246.44,422.42,248.34,423.4,249.91,424.22Zm-4.19,3.32.3,1-2.58.89c-.11-.4-.21-.81-.32-1.22ZM228.14,337l2.05,1.19-.42.74-2.06-1.14C227.86,337.49,228,337.23,228.14,337Zm-5.79-191.44a2.1,2.1,0,0,1,1.79-.4c2.26.76,3.1,4.85,1.16,8.23-1.42-2.43-2.56-4.21-3.49-6.09A1.93,1.93,0,0,1,222.35,145.52Zm-1.78,13.89,1.26,3-1.69.47a26.23,26.23,0,0,1-.73-2.87C219.39,159.88,220.17,159.62,220.57,159.41Zm-.46,219.83c1.66-5.11,2-5.33,5.37-4.89Zm6.44-30.31-.06,0h-.07c-1.47,2.29-4,1.55-5.89,2.45-.1-.32-.19-.64-.29-1l6.08-1.46.09-.09h.2l.3-.05-3-2.52c2.61-1,2.62.54,3.06,2.51l3.66-.66c0,.33,0,.66.07,1Zm9.3-21,3.55.89c-.05.22-.09.44-.14.67l-3.62-.8Zm.86,24.29,4.15-.58C238.84,355.32,238.84,355.32,236.71,352.23Zm10.39,83c-.18-.66-.36-1.33-.53-2h-1.74l-.06-.08a3.68,3.68,0,0,1-1.11.5c-1.15.25-2.08-.36-2.88-1.5h0l-.09-.15.23.06c1.26-.91,1.93-1.11,2.6-.55a3.35,3.35,0,0,1,.55.57c.19.25.4.55.63.92l.25.06h0l-.1.16h1.74c-.1-.36-.2-.71-.29-1.07l-.26-.4-.06-.5.18.38-.12.12.12-.11c0,.17.09.34.14.51l.69,1.07h0l1,1.6Zm2.38-4.86c-.48-.63-1-1.08-1-1.35a4.5,4.5,0,0,1,1-1.36c.34.31,1,.68,1,.9A6.78,6.78,0,0,1,249.48,430.4Zm4.83-84.49c-2-2.49-2-2.49,1.86-3.24Zm3.84,68.84a5.52,5.52,0,0,1,1.2.64l-1,1.14a4.07,4.07,0,0,1-.62-1.08C257.66,415.25,258.06,414.72,258.15,414.75Zm1.16,3.29c3.7,2.61,1,6.28,2.28,10.46C256.43,421.05,256.43,421.05,259.31,418Zm3.11-.14,2.46-2.57,1,.95-.15.16,2,.42c0,.22-.08.44-.11.65l-2.51-.33c-.56.61-1.11,1.23-1.66,1.84Zm6.72,13.61h-2.47c0-.18,0-.37,0-.55l2.5.26ZM424.4,157.31l2.69,8c-2.14.38-2.95,2.1-3.85,3.73C423.6,165.42,424,161.8,424.4,157.31ZM405.1,145.9l.72,2.95-.49.18c-.35-1-.71-1.91-1.06-2.86Zm-6.92-5L394,142.26C394.76,140.08,394.76,140.08,398.18,140.89Zm-6.82-24.36.74.49-2.67,4.38-.73-.71Zm-9.16,10.26-.94.83-2.69-1.92s0,0,0,.06l-.12-.14h0l.13.09c.08-1.46,1.16-1.45,2-1S381.66,126.08,382.2,126.79Zm.51,5L381.58,133c-.68-.71-1.37-1.41-2.05-2.11.34-.29.89-.9,1-.83A23,23,0,0,1,382.71,131.78ZM380,111.35l.86.39c-.35,1-.71,2-1.07,3l.1,0c0,.15,0,.29,0,.44-.06-.1-.1-.16-.15-.26s.05-.14.07-.21l-1.67-.42C378.73,113.33,379.35,112.34,380,111.35ZM373.54,127c.31.68.63,1.35.89,2a4.66,4.66,0,0,1-.75.42l-.93-2.11Zm-5.65-19.81,2.72,1.77c-.14.23-.29.46-.44.69l-2-1.22a6.91,6.91,0,0,1,0,.91c0,.11-.49.18-.76.27l-.42-1.92.6-.07Zm1.51,28.18-.18.47a3.74,3.74,0,0,1-1.32-.44c-.3-.26-.35-.81-.72-1.77Zm-2.21-9c0-.11.54-.51.73-.45a5.26,5.26,0,0,1,1.22.9c-.67.31-1.11.68-1.43.6S367.26,126.77,367.19,126.38Zm-2.74-22.57a9.75,9.75,0,0,1,1.24.5l-.53.89a6.55,6.55,0,0,1-1-.73C364.07,104.41,364.4,103.79,364.45,103.81Zm-7.26,10.94v0h0l.08.13,2.42-.17-.71,3.06c-.85-1.43-1.29-2.17-1.71-2.89l-.19,0C357.12,114.87,357.16,114.81,357.19,114.75Zm-5.76-9.54h.06l0,0h0c0,.12,0,.24,0,.37l1.13,1.65-.87.35-.27-2-.16-.22.06-.12-2,.12ZM348.09,149a18.83,18.83,0,0,0,.82-3.82c.16-1.14.17-2.3.27-3.85,2.91.19,4.39,1,3.83,3.72a34.74,34.74,0,0,0-.66,4.29c-.12,1.53,0,3.07,0,4.88-.91.16-2.22,1.1-3.72-.67C347.25,152,347.49,150.65,348.09,149Zm-1.42,185c.07-.11.13-.23.19-.34,0,.17,0,.34-.05.51s-.1.13-.14.21Zm-1.32-205c1.76,3.18,1.76,3.18-1.87,4.82C342.3,131.44,343.66,130.24,345.35,129Zm-1.24,239c.25,1.67.43,2.78.59,3.9C341.94,371,341.8,369.84,344.11,368Zm-8.67-257.22a6.54,6.54,0,0,1,1.14,1.34c.07.14-.5.61-1,1.16l-1.4-1.23Zm.11,3.45.18.94-5.76,2.1c-.11-1.24-.2-2.14-.32-3.46ZM329,329.73l2,2.68C328.93,332.25,328.93,332.25,329,329.73Zm-29.34,6.93a6.84,6.84,0,0,1,2.2,6.72l.09.09.12.34-.23-.23.11-.11-.11.1a1.23,1.23,0,0,0,0-.19,34.81,34.81,0,0,1-3-3.12C298,339.1,297.88,337.82,299.62,336.66Zm-7.77-1.59,1.41,2.21L292,338l-.87-2.55Zm-5.76,20.82-2.39,3.85C281.65,355.73,281.65,355.73,286.09,355.89Zm-1.28-21.51-1.6-1.25.34-.5,1.74,1Zm-1.64-7.15c2.87,3.93-1.41,5.4-2.21,7.94C278.49,331.51,283.6,330.53,283.17,327.23Zm-2.33,18.24c0,.34-.7.94-1,.88-1.71-.33-2.42-1.36-1.89-3.29C279.59,343.28,281,343.43,280.84,345.47Zm-2.29-12.68a20.51,20.51,0,0,0-2.74.32,32.53,32.53,0,0,0-3.17,1.13C274.3,331.73,276.6,332.77,278.55,332.79Zm6.92,95.64a58.15,58.15,0,0,1-8,.66c-.83,0-1.58-1.62-2.79-3,2.49-1.82,1.45-7.25,6.07-6.83,2.94.27,7,.5,7.13,5.19C288,426.53,282.76,424.92,285.47,428.43ZM303.91,369c.14.42-1.84,2.22-2.13,2.06-1.19-.63-3.13-2.2-2.94-2.67,1.21-2.94.92-6.63,4.13-9,.62.65,1.18,1.21,1.71,1.8s1.26,1.47,2,2.34C305.45,365.26,303,366.21,303.91,369Zm2.72-15.3-4.19-2.37c-2.7,1.11-1.31,3.08-1.07,4.93l-6.23,3.08c-.51-1.94-.92-3.52-1.37-5.26-2.17,2.51-2.56-1.61-4.43-1l-.32-.92,4.32-3.1c-.83-2.19-1.75-4.61-2.68-7l.41-.29c1.87,2,3.4,4.77,5.69,5.74,2.65,1.12,6,.65,9.48.91C306.63,349.74,310.1,351,306.63,353.66Zm3.58,17-1.12-1a4.47,4.47,0,0,1,1.1-.77c.19-.07.78.36.76.42A10.3,10.3,0,0,1,310.21,370.7Zm6.84-7.73,2.43.95-.24.66-2.44-.94Zm1.91,12.1-.15.16,0,0a2.92,2.92,0,0,0-.14.31c-.19,1.34-.37,2.67-.55,4l-1.17-.31c.57-1.23,1.15-2.46,1.72-3.7,0-.15,0-.29.05-.43l.22-.07c1-1.14,2-2.27,3.19-3.56C321.91,374.11,321.84,374.2,319,375.07Zm1.89-45.3c-.05-.26-.11-.53-.16-.79.71-.14,1.41-.29,2.13-.39,0,0,.11.52.16.8Zm1.73-223.49,3.93,2.75C322.38,109.37,322.38,109.37,322.58,106.28ZM327.44,365c1.68-4.25,2.26-4.32,6.44-.61C331.61,367.12,329.57,366.24,327.44,365Zm9.89-232.64c.16-.05.35-.19.47-.14,1.2.41,2.38.86,3.86,1.4-1.14,2.83-1.66,5.9-4.84,7.09-.56.21-1.55-.72-2.87-1.4C337.57,136.54,337.57,136.54,337.33,132.4Zm2.08,230.9h-1.17a13.85,13.85,0,0,1-.17-1.81c0-.08.57-.16.88-.24C339.1,361.94,339.25,362.62,339.41,363.3Zm5.3,15.13-9.65-6.69,11.5,1.23Zm3.79-10.21-5-1.59,5-1.84a14.57,14.57,0,0,1,.51,2.14C349,367.21,348.8,367.51,348.5,368.22Zm2.92-17.49c-3.28-2.72-3.16-3.26,1.4-6.75Zm3.86,14.75-1.15-.72,2.07-3.1C357.51,364.14,356.23,364.73,355.28,365.48Zm-1.55-35.29c.38,2.12.7,3.93,1,5.73.06,0,.1.09.17.12h0l-.13.14s0-.05,0-.08l-1.54.77,1.54-.77,0-.19c-2.39-1.24-2.93-3.71-3.88-5.9l-.13,0,.08-.15-.08.15,0-.11c.05,0,.07,0,.12,0s0,.09.05.13l7.84-1.3.21,1.1Zm4.86,9.3,2.7-4.79,0,0,.09-.09h0l-.07.12C363.34,338.05,363.31,338.08,358.59,339.49Zm12.66,25.93-1.38-5.31.93-.22c.44,1.78.87,3.55,1.3,5.33Zm-1.78-204.09-3.38,4.2c.3-3.24.5-5.36.8-8.63,1.68,3.76,6.71,1.84,7.08,6.39Zm2.37-5.92c-3-4.11-8.25-2.75-10.91-7,5.06.77,5.73-3.73,8.3-5.69l.15-.15c-.12-2.19-1.1-4.69,2-5.7a.84.84,0,0,0,.14-.06l.06.23c.32,1.28.63,2.56.95,3.83l0,.14-.14.07a1.86,1.86,0,0,0,1.72,2.69c2.54.1,2.87,1.86,3.76,4.27l-3.4-1.76C373.68,149.08,372.9,151.76,371.84,155.41Zm5.55-6.06c2.83,1.12,2.66,3.43,3.1,5.48.41,1.9.54,4.37,1.79,5.47,3.08,2.73,2.5,6.79,4.4,9.87.37.6.12,1.59.14,2.05l-9.22-3,2.41-2.82,2.18,2.66c.56-.66,1.19-1.16,1.1-1.35a26.3,26.3,0,0,0-2.54-5.19c-.83-1.15-2.44-1.73-3.4-2.83a25.63,25.63,0,0,1-2.4-4.05Zm0,222.12c-.1-1.51-.19-3-.29-4.53l1-.07.27,4.52Zm8.78-4.81-.72-.24.92-2.46.55.19Zm3.92-11.26-2-.21a1.48,1.48,0,0,0,0-.21h2C390.12,355.12,390.11,355.26,390.11,355.4Zm2.25-16.85-.41-.09,0,0a1.19,1.19,0,0,0,.16-.08l-.12.12.12-.12c.09.09.2.13.29.21l3.24.76.77-1.35.69.39-.65,1.15,11,2.57C401.19,343.17,396.38,342.42,392.36,338.55ZM405,334c2.49-.45,2.49-.45,4.2,6.75C405.29,339.41,406.21,336.23,405,334Zm5.73-178.47h-.5v-1.8h.5Zm3.46-1.52c-2.36-1.13-5.21-1.53-6.22-4.62l-.26-.14c0-.05-.07-.07-.1-.11a1.46,1.46,0,0,0,.22,0l-.12.14.12-.13c0,.11.11.16.14.27l6.83,3.62Zm1.61-5.77c.84,1.81,1.67,3.61,2.5,5.42l-1.12.78C414.09,153.5,415.08,150.85,415.84,148.26Zm5.9,183.54c.09-1,.16-1.94.3-2.9a2.5,2.5,0,0,1,.86,0c.2,1,.34,2,.49,2.95Zm16.47-48.56a5.62,5.62,0,0,1,.93,1c.08.11-.25.48-.4.73l-1-.79Z" transform="translate(0)"/><path d="M416.19,142.51c-.36-.57-.73-1.13-1.1-1.69-.21.67-.43,1.39-.7,2.28Z" transform="translate(0)"/><path d="M447,346.73c.63,1.79,1,3,1.67,4.78C449.44,348.07,449.44,348.07,447,346.73Z" transform="translate(0)"/><path d="M224.73,418.55c-4.61-.79-8.57.39-11.26,4.94.5.39,1.37.76,1.37,1.12-.05,3.39,1,6,3.33,7.89,1,.27,2,.49,3,.72C222.31,428.31,223.45,423.4,224.73,418.55Z" transform="translate(0)"/><path d="M198.21,39.85c.54-1.16,1.19-2.58,1-3.73s-.45-2.16-.72-3.24c-1.54-2.19-3.08-4.31-4.36-6.52l-7.26.65c.59,2.5,1,4.44,1.54,6.55l4.3,1.09-.06.83-14.28-.78c0,.18,0,.36,0,.54l4.23.54c-2.32,1.65-5.57.95-6,4-.32,2.31-1.14,5-.28,6.91a32.24,32.24,0,0,0,2.34,4.1q8.23-3.21,16.8-5.72C195.79,43.3,197.39,41.64,198.21,39.85Z" transform="translate(0)"/><path d="M338,33.23l.38-.06-.49-.88A7.31,7.31,0,0,0,338,33.23Z" transform="translate(0)"/><path d="M335.77,28.45l-3.51-6.37a8.44,8.44,0,0,1-.16,1.75,3.59,3.59,0,0,1,1.27,3.06,10.58,10.58,0,0,0,.92,3.39c.07.19.15.36.23.54A4.79,4.79,0,0,1,335.77,28.45Z" transform="translate(0)"/><path d="M167.78,117.89c-.82,1.12-1,2.71-1.39,4.11,0,.1.42.34.67.54l3.28-3.86c.41,2.36.66,3.82.92,5.28l.81.24c.65-1.65,1.3-3.3,1.92-4.84C170.1,116.92,168.78,116.52,167.78,117.89Z" transform="translate(0)"/><path d="M314.21,38.8a6.43,6.43,0,0,0-2,6l3.39,1A13.07,13.07,0,0,0,314.21,38.8Z" transform="translate(0)"/><path d="M186.78,448.53c.84-1.66,1.49-3,2.11-4.23l-.67-.21C186.58,445.22,186.59,445.7,186.78,448.53Z" transform="translate(0)"/><path d="M169.45,49.82a5.94,5.94,0,0,0,1.71-1c-.74-.52-1.25-1.08-1.44-1A5.92,5.92,0,0,0,168.43,49C168.77,49.31,169.17,49.87,169.45,49.82Z" transform="translate(0)"/><path d="M18.37,263.32l8,7.67c.94-4.07,1.9-8.14,3-12.17C24.88,258.06,21.05,259.17,18.37,263.32Z" transform="translate(0)"/><path d="M209.23,12.82,195,12c0,.18,0,.37,0,.55l4.23.53c-2.32,1.66-5.58,1-6,4-.32,2.3-1.14,5-.28,6.9a23.66,23.66,0,0,0,1.24,2.33l2.55-.23c.59,2.23,1.25,4.47,1.81,6.75.42.6.84,1.2,1.25,1.81,5.53-2.58,11.59-4,12.18-11.7.16-2,2-3.81,2.94-5.79.14-.3.28-.62.42-.94l-6-3.64C209.24,12.69,209.24,12.75,209.23,12.82Z" transform="translate(0)"/><path d="M196.65,26.13l-2.55.23c1.28,2.21,2.82,4.33,4.36,6.52C197.9,30.6,197.24,28.36,196.65,26.13Z" transform="translate(0)"/><path d="M329.16,24.05h.66c0,.27,0,.53,0,.8h-.46c.24,1,.51,2.11.69,3.23a9.21,9.21,0,0,0,2.06-4.25,5.57,5.57,0,0,0-2-1c.28-1.1.53-2.2.8-3.26l-1.18-2.14C328.36,19.53,328.63,21.68,329.16,24.05Z" transform="translate(0)"/><path d="M203.4,425.88c1.06-2.12,1.83-3.67,2.61-5.22C203.17,422.48,203.17,422.48,203.4,425.88Z" transform="translate(0)"/><path d="M186.07,27.17a6.44,6.44,0,0,0,1.71-1c-.74-.53-1.25-1.08-1.44-1a6.17,6.17,0,0,0-1.29,1.22C185.39,26.66,185.79,27.22,186.07,27.17Z" transform="translate(0)"/><circle class="cls-1" cx="254.57" cy="244.76" r="185.25" transform="translate(-98.51 251.7) rotate(-45)"/><path d="M159,162.3v68H135.5a4.77,4.77,0,0,1-2.76-.68,2.18,2.18,0,0,1-1-1.91,2.61,2.61,0,0,1,2-2.69c1.09-.37,1.73-.59,1.91-.68a1.45,1.45,0,0,0,.57-.57,4.23,4.23,0,0,0,.6-2.53V171.36a4.26,4.26,0,0,0-.6-2.54,1.45,1.45,0,0,0-.57-.57c-.18-.09-.82-.31-1.91-.68a2.6,2.6,0,0,1-2-2.68,2.2,2.2,0,0,1,1-1.92,4.77,4.77,0,0,1,2.76-.67H159Zm15.48,32.76a52.07,52.07,0,0,1,6.9,1.74,19.36,19.36,0,0,1,4.35,2.14,14.09,14.09,0,0,1,5.1,5.65,17.15,17.15,0,0,1,1.77,7.84q0,8.52-6.27,13.29a19.66,19.66,0,0,1-7.15,3.51,41.15,41.15,0,0,1-10.23,1H163V225a12.12,12.12,0,0,0,3.14-.57,5.28,5.28,0,0,0,2-1.42q1.64-1.84,1.64-5.73V206a14,14,0,0,0-.42-3.88,6.16,6.16,0,0,0-1.57-2.54,5.32,5.32,0,0,0-1.84-1.3,12.61,12.61,0,0,0-2.84-.64v-5.18A12.43,12.43,0,0,0,166,192a5.19,5.19,0,0,0,1.87-1.15,5.91,5.91,0,0,0,1.34-1.94,5.83,5.83,0,0,0,.6-2.19V175.34a9.56,9.56,0,0,0-.45-2.81,7.49,7.49,0,0,0-1.09-2.32,6.22,6.22,0,0,0-2.12-1.69,10,10,0,0,0-3.16-.75V162.3h5.72q11.36,0,17.33,4.68a14.13,14.13,0,0,1,4.18,5.18,15.51,15.51,0,0,1,0,13.14,14,14,0,0,1-4.11,5.13A16.85,16.85,0,0,1,181.6,193,52.81,52.81,0,0,1,174.43,195.06Z" transform="translate(0)"/><path d="M227.2,162.3v68H203.75a4.81,4.81,0,0,1-2.76-.68,2.18,2.18,0,0,1-1-1.91,2.6,2.6,0,0,1,2-2.69c1.1-.37,1.74-.59,1.92-.68a1.52,1.52,0,0,0,.57-.57,4.23,4.23,0,0,0,.6-2.53V171.36a4.26,4.26,0,0,0-.6-2.54,1.52,1.52,0,0,0-.57-.57c-.18-.09-.82-.31-1.92-.68a2.59,2.59,0,0,1-2-2.68,2.19,2.19,0,0,1,1-1.92,4.81,4.81,0,0,1,2.76-.67H227.2Zm4.19,36.24v-5.77a13.05,13.05,0,0,0,4.28-3,10.49,10.49,0,0,0,2-4.38,5.85,5.85,0,0,1,1-2.62,2.35,2.35,0,0,1,1.84-.72,2.22,2.22,0,0,1,2.2,1.25,7.68,7.68,0,0,1,.34,2.93v19a7,7,0,0,1-.52,3.24,2,2,0,0,1-1.92.9,2.34,2.34,0,0,1-1.79-.7,5.28,5.28,0,0,1-1-2.34,12.85,12.85,0,0,0-2.42-5.28A7.46,7.46,0,0,0,231.39,198.54Zm.24-36.24H251.7v17.62a3.39,3.39,0,0,1-.6,2.24,3,3,0,0,1-3.49.25,4.43,4.43,0,0,1-.94-1.84,18.6,18.6,0,0,0-5.55-8.81,17.2,17.2,0,0,0-9.49-3.64Zm.05,68v-5.38a22.73,22.73,0,0,0,5.36-1.4,16.43,16.43,0,0,0,4.25-2.73,17.73,17.73,0,0,0,3.41-3.81,25.39,25.39,0,0,0,2.42-5.21,5.53,5.53,0,0,1,1.14-2.16,2.29,2.29,0,0,1,1.64-.57,2.18,2.18,0,0,1,1.95.82,5.48,5.48,0,0,1,.54,2.86v17.58Z" transform="translate(0)"/><path d="M282.81,161v5.73a9.6,9.6,0,0,0-4.7,2.61,6.21,6.21,0,0,0-1.62,4.36,7.27,7.27,0,0,0,1.34,4.35,13.3,13.3,0,0,0,4.38,3.57q2.1,1.14,9.46,4.38a50.5,50.5,0,0,1,6.95,3.51,24.33,24.33,0,0,1,4.65,3.9,20.59,20.59,0,0,1,5.88,14.69,22.61,22.61,0,0,1-11.95,20.11,28.93,28.93,0,0,1-6.55,2.52,26.78,26.78,0,0,1-6.64.92v-5.68a13.39,13.39,0,0,0,6.24-2.91,6.73,6.73,0,0,0,1.92-5,7.55,7.55,0,0,0-3-5.88,35.83,35.83,0,0,0-7.56-4.08q-6.14-2.69-8.39-3.83a30.83,30.83,0,0,1-4.36-2.69q-9.36-6.67-9.36-17.77a23.66,23.66,0,0,1,2.34-10.49,20,20,0,0,1,6.52-7.74A27.14,27.14,0,0,1,282.81,161Zm-2.59,65v5.68a21.27,21.27,0,0,1-9-2.34c-1.23-.57-2.07-.93-2.54-1.1a4.08,4.08,0,0,0-1.34-.24,2.77,2.77,0,0,0-1.5.32,9.15,9.15,0,0,0-1.59,1.62A2.52,2.52,0,0,1,262.3,231c-1.86,0-2.79-1.42-2.79-4.28V208.55a3.63,3.63,0,0,1,.8-2.37,2.66,2.66,0,0,1,2-1,2.11,2.11,0,0,1,1.72.63,5.72,5.72,0,0,1,1.07,2.36,32.36,32.36,0,0,0,3.31,8,25.82,25.82,0,0,0,5.05,6.32A13.73,13.73,0,0,0,280.22,225.92Zm6.53-59.24V161.2a28.79,28.79,0,0,1,5.17.77,52.14,52.14,0,0,1,6.23,2.27,4.54,4.54,0,0,0,1.64.4,1.58,1.58,0,0,0,1.39-.65l1.1-1.44a2.34,2.34,0,0,1,1.94-1.1,2.14,2.14,0,0,1,2,1,5.78,5.78,0,0,1,.63,3.06v16.43a3.47,3.47,0,0,1-.82,2.37,2.73,2.73,0,0,1-2.12.92,3,3,0,0,1-1.84-.65,2.93,2.93,0,0,1-.72-1,8.13,8.13,0,0,1-.53-1.92,20.46,20.46,0,0,0-1.89-5,23.34,23.34,0,0,0-3.13-4.63A17,17,0,0,0,286.75,166.68Z" transform="translate(0)"/><path d="M314.92,162.3H328v6a10.06,10.06,0,0,0-3.64,3.44,21.07,21.07,0,0,0-2.88,8l-.5,3a4.13,4.13,0,0,1-1.07,2.26,2.8,2.8,0,0,1-2.07.82,2.71,2.71,0,0,1-2.11-.89,3.33,3.33,0,0,1-.83-2.34Zm39.23,0v58.5a4.15,4.15,0,0,0,.75,2.78,1.82,1.82,0,0,0,.75.62c.23.09,1,.3,2.29.63a2.65,2.65,0,0,1,2.39,2.74,2.38,2.38,0,0,1-1.3,2.09,6.23,6.23,0,0,1-3.18.6H330.36a6.49,6.49,0,0,1-3.31-.68,2.19,2.19,0,0,1-1.12-2,2.64,2.64,0,0,1,2.39-2.74c1.29-.33,2.05-.54,2.29-.63a1.55,1.55,0,0,0,.69-.62,4.15,4.15,0,0,0,.75-2.78V162.3Zm17.23,0v20.36a3.32,3.32,0,0,1-.82,2.34,3,3,0,0,1-4.18.07,4,4,0,0,1-1.07-2.26l-.5-3a21.08,21.08,0,0,0-2.89-8,10.62,10.62,0,0,0-3.63-3.44v-6Z" transform="translate(0)"/><path d="M134.48,250.58v58.5a4.26,4.26,0,0,0,.74,2.79,1.93,1.93,0,0,0,.75.61c.23.09,1,.3,2.29.63a2.64,2.64,0,0,1,2.39,2.74,2.39,2.39,0,0,1-1.29,2.09,6.13,6.13,0,0,1-3.14.6H111a4.77,4.77,0,0,1-2.76-.68,2.18,2.18,0,0,1-1-1.91,2.6,2.6,0,0,1,2-2.69c1.09-.37,1.73-.59,1.91-.67a1.58,1.58,0,0,0,.58-.58,4.23,4.23,0,0,0,.59-2.53V259.64a4.27,4.27,0,0,0-.59-2.54,1.47,1.47,0,0,0-.58-.57c-.18-.09-.82-.31-1.91-.68a2.59,2.59,0,0,1-2-2.68,2.19,2.19,0,0,1,1-1.92,4.77,4.77,0,0,1,2.76-.67h23.45Zm4.23,41.92v-5.33a10.73,10.73,0,0,0,3-1,4.63,4.63,0,0,0,1.52-1.7,11,11,0,0,0,1-5.22V263.27a12.9,12.9,0,0,0-.35-3.48,4.72,4.72,0,0,0-1.4-2.09,6.75,6.75,0,0,0-3.88-1.74v-5.38q10.26,0,15.14,1.94A18.69,18.69,0,0,1,166,271q0,7.67-3.38,12.55a19.7,19.7,0,0,1-9.46,7.12Q148.18,292.49,138.71,292.5Z" transform="translate(0)"/><path d="M199.35,250.58v58.5a4.26,4.26,0,0,0,.74,2.79,1.93,1.93,0,0,0,.75.61c.23.09,1,.3,2.29.63a2.65,2.65,0,0,1,2.39,2.74,2.38,2.38,0,0,1-1.3,2.09,6.09,6.09,0,0,1-3.13.6H175.9a4.82,4.82,0,0,1-2.77-.68,2.2,2.2,0,0,1-1-1.91,2.61,2.61,0,0,1,2-2.69c1.1-.37,1.74-.59,1.92-.67a1.57,1.57,0,0,0,.57-.58,4.23,4.23,0,0,0,.6-2.53V259.64a4.26,4.26,0,0,0-.6-2.54,1.45,1.45,0,0,0-.57-.57c-.18-.09-.82-.31-1.92-.68a2.6,2.6,0,0,1-2-2.68,2.22,2.22,0,0,1,1-1.92,4.83,4.83,0,0,1,2.77-.67h23.45Zm15.28,34.65a43,43,0,0,1,7.05,1.54,17.17,17.17,0,0,1,4.45,2.29,10.73,10.73,0,0,1,3.21,3.69,9.58,9.58,0,0,1,1.12,4.53v10.3q0,1.59,1,1.59a1,1,0,0,0,.67-.22,5.91,5.91,0,0,0,.77-.87,3.36,3.36,0,0,1,2.54-1.69,2.4,2.4,0,0,1,1.69.89,2.64,2.64,0,0,1,.85,1.8,7.25,7.25,0,0,1-1.47,3.76,17.28,17.28,0,0,1-3.66,4,13,13,0,0,1-4.43,2.37,19.57,19.57,0,0,1-5.62.72c-4.38,0-7.81-1.25-10.26-3.76s-3.68-6-3.68-10.48v-8.36c0-1.86,0-2.94,0-3.24a6.74,6.74,0,0,0-1.4-3.43,5.94,5.94,0,0,0-4.13-2.05v-5.32a7.57,7.57,0,0,0,3.83-1.4,4.56,4.56,0,0,0,1.37-2,11.47,11.47,0,0,0,.38-3.38v-13.2a7.43,7.43,0,0,0-1.23-4.68,8.45,8.45,0,0,0-4.4-2.44v-5.52h1.3a92.72,92.72,0,0,1,9.4.4,20.71,20.71,0,0,1,10.31,3.78q6.53,4.64,6.52,13.19a15.75,15.75,0,0,1-4.38,11.5,14.89,14.89,0,0,1-4.31,3.09A52.89,52.89,0,0,1,214.63,285.23Z" transform="translate(0)"/><path d="M270.69,318.54h-23.5a4.77,4.77,0,0,1-2.76-.68,2.18,2.18,0,0,1-1-1.91,2.61,2.61,0,0,1,2-2.69c1.09-.37,1.73-.59,1.91-.67a1.58,1.58,0,0,0,.58-.58,4.31,4.31,0,0,0,.59-2.53V259.64a4.34,4.34,0,0,0-.59-2.54,1.47,1.47,0,0,0-.58-.57c-.18-.09-.82-.31-1.91-.68a2.59,2.59,0,0,1-2-2.68,2.2,2.2,0,0,1,1-1.92,4.77,4.77,0,0,1,2.76-.67H272a4.83,4.83,0,0,1,2.77.67,2.22,2.22,0,0,1,1,1.92,2.59,2.59,0,0,1-2,2.68c-1.09.37-1.73.59-1.91.68a1.61,1.61,0,0,0-.58.57,4.34,4.34,0,0,0-.59,2.54v49.84a4.31,4.31,0,0,0,.59,2.53,1.74,1.74,0,0,0,.58.58c.18.08.82.3,1.91.67a2.61,2.61,0,0,1,2,2.69,2.2,2.2,0,0,1-1,1.91,4.82,4.82,0,0,1-2.77.68Z" transform="translate(0)"/><path d="M311.26,249.23v6a6.13,6.13,0,0,0-4.38,2.59,10.9,10.9,0,0,0-1.44,6.12v43.26a7.05,7.05,0,0,0,.47,2.42,7.47,7.47,0,0,0,1.22,2.16,4.86,4.86,0,0,0,1.69,1.42,7.4,7.4,0,0,0,2.44.58v6.07a28.33,28.33,0,0,1-16.77-5A27.32,27.32,0,0,1,285,302.93a45.06,45.06,0,0,1-3.19-17.75,46,46,0,0,1,2.07-14,33.52,33.52,0,0,1,6-11.27,31,31,0,0,1,9.53-7.77,22.81,22.81,0,0,1,10.68-2.94Zm3.94,6.08v-6a34.84,34.84,0,0,1,4,.85q1.51.45,5.5,1.89a13.16,13.16,0,0,0,3.38.9,2.36,2.36,0,0,0,2.19-1.3l.65-1.19a2.27,2.27,0,0,1,2.24-1.2,2.65,2.65,0,0,1,2.07.8,3.38,3.38,0,0,1,.72,2.34v20.71A4,4,0,0,1,335,276a2.82,2.82,0,0,1-2,.89,2.47,2.47,0,0,1-1.91-.77,5.7,5.7,0,0,1-1.18-2.51,42.7,42.7,0,0,0-2-6.17,28.37,28.37,0,0,0-4.88-7.67,16.08,16.08,0,0,0-3.69-3.06A10.83,10.83,0,0,0,315.2,255.31Zm.15,64.57v-6.07a18.36,18.36,0,0,0,8.16-2.94,15,15,0,0,0,4.08-3.86,17.34,17.34,0,0,0,2.69-5.3,5.59,5.59,0,0,1,1.17-2.27,2.43,2.43,0,0,1,1.77-.67,2.54,2.54,0,0,1,2,.9,3.23,3.23,0,0,1,.8,2.24,11.89,11.89,0,0,1-1.72,5.42,25,25,0,0,1-4.41,5.88,23.87,23.87,0,0,1-6.74,4.88A20.72,20.72,0,0,1,315.35,319.88Z" transform="translate(0)"/><path d="M370.66,250.58v68H347.21a4.82,4.82,0,0,1-2.77-.68,2.2,2.2,0,0,1-1-1.91,2.61,2.61,0,0,1,2-2.69c1.1-.37,1.74-.59,1.92-.67A1.57,1.57,0,0,0,348,312a4.23,4.23,0,0,0,.6-2.53V259.64a4.26,4.26,0,0,0-.6-2.54,1.45,1.45,0,0,0-.57-.57c-.18-.09-.82-.31-1.92-.68a2.6,2.6,0,0,1-2-2.68,2.22,2.22,0,0,1,1-1.92,4.83,4.83,0,0,1,2.77-.67h23.45Zm4.18,36.24v-5.77a13.05,13.05,0,0,0,4.28-3,10.37,10.37,0,0,0,2-4.38,5.9,5.9,0,0,1,1-2.61,2.31,2.31,0,0,1,1.84-.73,2.22,2.22,0,0,1,2.19,1.25,7.61,7.61,0,0,1,.35,2.93v19a6.85,6.85,0,0,1-.53,3.24,2,2,0,0,1-1.91.9,2.33,2.33,0,0,1-1.79-.7,5.27,5.27,0,0,1-1.05-2.34,12.72,12.72,0,0,0-2.42-5.28A7.42,7.42,0,0,0,374.84,286.82Zm.25-36.24h20.06V268.2a3.39,3.39,0,0,1-.6,2.24,3,3,0,0,1-3.48.25,4.41,4.41,0,0,1-.95-1.84,18.6,18.6,0,0,0-5.55-8.81,17.2,17.2,0,0,0-9.48-3.64Zm.05,68v-5.38a22.64,22.64,0,0,0,5.35-1.4,16.47,16.47,0,0,0,4.26-2.73,18.28,18.28,0,0,0,3.41-3.81,25.42,25.42,0,0,0,2.41-5.21,5.65,5.65,0,0,1,1.15-2.16,2.27,2.27,0,0,1,1.64-.57,2.16,2.16,0,0,1,1.94.82,5.36,5.36,0,0,1,.55,2.86v17.58Z" transform="translate(0)"/></svg>